<mxfile host="65bd71144e">
    <diagram name="Page-1" id="7e0a89b8-554c-2b80-1dc8-d5c74ca68de4">
        <mxGraphModel dx="1277" dy="832" grid="1" gridSize="10" guides="1" tooltips="1" connect="1" arrows="1" fold="1" page="1" pageScale="1" pageWidth="1100" pageHeight="850" background="none" math="0" shadow="0">
            <root>
                <mxCell id="0"/>
                <mxCell id="1" parent="0"/>
                <mxCell id="HXO4jJ1y9l5ZbeT_rfQ7-1" value="Raspberry Pi&lt;br&gt;Pico W" style="shadow=0;dashed=0;align=center;html=1;strokeWidth=1;shape=mxgraph.electrical.logic_gates.dual_inline_ic;labelNames=a,b,c,d,e,f,g,h,i,j,k,l,m,n,o,p,q,r,s,t;whiteSpace=wrap;rotation=90;horizontal=0;" parent="1" vertex="1">
                    <mxGeometry x="-580" y="100" width="120" height="400" as="geometry"/>
                </mxCell>
                <mxCell id="HXO4jJ1y9l5ZbeT_rfQ7-28" value="" style="group" parent="1" vertex="1" connectable="0">
                    <mxGeometry x="-880" y="40" width="240" height="80" as="geometry"/>
                </mxCell>
                <mxCell id="HXO4jJ1y9l5ZbeT_rfQ7-14" value="" style="rounded=0;whiteSpace=wrap;html=1;" parent="HXO4jJ1y9l5ZbeT_rfQ7-28" vertex="1">
                    <mxGeometry width="240" height="80" as="geometry"/>
                </mxCell>
                <mxCell id="HXO4jJ1y9l5ZbeT_rfQ7-22" value="CSB" style="text;html=1;strokeColor=none;fillColor=none;align=center;verticalAlign=middle;whiteSpace=wrap;rounded=0;" parent="HXO4jJ1y9l5ZbeT_rfQ7-28" vertex="1">
                    <mxGeometry x="80" y="60" width="40" height="20" as="geometry"/>
                </mxCell>
                <mxCell id="HXO4jJ1y9l5ZbeT_rfQ7-23" value="SDI" style="text;html=1;strokeColor=none;fillColor=none;align=center;verticalAlign=middle;whiteSpace=wrap;rounded=0;" parent="HXO4jJ1y9l5ZbeT_rfQ7-28" vertex="1">
                    <mxGeometry x="120" y="60" width="40" height="20" as="geometry"/>
                </mxCell>
                <mxCell id="HXO4jJ1y9l5ZbeT_rfQ7-24" value="SDO" style="text;html=1;strokeColor=none;fillColor=none;align=center;verticalAlign=middle;whiteSpace=wrap;rounded=0;" parent="HXO4jJ1y9l5ZbeT_rfQ7-28" vertex="1">
                    <mxGeometry x="160" y="60" width="40" height="20" as="geometry"/>
                </mxCell>
                <mxCell id="HXO4jJ1y9l5ZbeT_rfQ7-25" value="SCK" style="text;html=1;strokeColor=none;fillColor=none;align=center;verticalAlign=middle;whiteSpace=wrap;rounded=0;" parent="HXO4jJ1y9l5ZbeT_rfQ7-28" vertex="1">
                    <mxGeometry x="200" y="60" width="40" height="20" as="geometry"/>
                </mxCell>
                <mxCell id="HXO4jJ1y9l5ZbeT_rfQ7-26" value="GND" style="text;html=1;strokeColor=none;fillColor=none;align=center;verticalAlign=middle;whiteSpace=wrap;rounded=0;" parent="HXO4jJ1y9l5ZbeT_rfQ7-28" vertex="1">
                    <mxGeometry x="40" y="60" width="40" height="20" as="geometry"/>
                </mxCell>
                <mxCell id="HXO4jJ1y9l5ZbeT_rfQ7-27" value="VCC" style="text;html=1;strokeColor=none;fillColor=none;align=center;verticalAlign=middle;whiteSpace=wrap;rounded=0;" parent="HXO4jJ1y9l5ZbeT_rfQ7-28" vertex="1">
                    <mxGeometry y="60" width="40" height="20" as="geometry"/>
                </mxCell>
                <mxCell id="HXO4jJ1y9l5ZbeT_rfQ7-55" value="BME280" style="text;html=1;strokeColor=default;fillColor=none;align=center;verticalAlign=middle;whiteSpace=wrap;rounded=0;container=0;" parent="HXO4jJ1y9l5ZbeT_rfQ7-28" vertex="1">
                    <mxGeometry y="10" width="240" height="50" as="geometry"/>
                </mxCell>
                <mxCell id="HXO4jJ1y9l5ZbeT_rfQ7-36" value="" style="endArrow=none;html=1;rounded=0;exitX=0.5;exitY=1;exitDx=0;exitDy=0;entryX=0.5;entryY=0;entryDx=0;entryDy=0;strokeWidth=3;strokeColor=#FF0000;" parent="1" source="HXO4jJ1y9l5ZbeT_rfQ7-22" target="HXO4jJ1y9l5ZbeT_rfQ7-43" edge="1">
                    <mxGeometry width="50" height="50" relative="1" as="geometry">
                        <mxPoint x="-730" y="130" as="sourcePoint"/>
                        <mxPoint x="-780" y="200" as="targetPoint"/>
                    </mxGeometry>
                </mxCell>
                <mxCell id="HXO4jJ1y9l5ZbeT_rfQ7-38" value="" style="endArrow=none;html=1;rounded=0;exitX=0.5;exitY=1;exitDx=0;exitDy=0;strokeWidth=3;" parent="1" source="HXO4jJ1y9l5ZbeT_rfQ7-24" target="HXO4jJ1y9l5ZbeT_rfQ7-37" edge="1">
                    <mxGeometry width="50" height="50" relative="1" as="geometry">
                        <mxPoint x="-740" y="120" as="sourcePoint"/>
                        <mxPoint x="-740" y="160" as="targetPoint"/>
                    </mxGeometry>
                </mxCell>
                <mxCell id="HXO4jJ1y9l5ZbeT_rfQ7-37" value="" style="ellipse;whiteSpace=wrap;html=1;fillColor=#000000;" parent="1" vertex="1">
                    <mxGeometry x="-704" y="208" width="10" height="10" as="geometry"/>
                </mxCell>
                <mxCell id="HXO4jJ1y9l5ZbeT_rfQ7-43" value="" style="ellipse;whiteSpace=wrap;html=1;fillColor=#FF0000;strokeColor=#FF0000;" parent="1" vertex="1">
                    <mxGeometry x="-784" y="400" width="10" height="10" as="geometry"/>
                </mxCell>
                <mxCell id="HXO4jJ1y9l5ZbeT_rfQ7-44" value="" style="endArrow=none;html=1;rounded=0;strokeWidth=3;entryX=1;entryY=0.5;entryDx=0;entryDy=0;exitX=0;exitY=0;exitDx=0;exitDy=50;exitPerimeter=0;" parent="1" source="HXO4jJ1y9l5ZbeT_rfQ7-1" target="HXO4jJ1y9l5ZbeT_rfQ7-37" edge="1">
                    <mxGeometry width="50" height="50" relative="1" as="geometry">
                        <mxPoint x="-300" y="155" as="sourcePoint"/>
                        <mxPoint x="-729" y="160" as="targetPoint"/>
                        <Array as="points">
                            <mxPoint x="-370" y="210"/>
                        </Array>
                    </mxGeometry>
                </mxCell>
                <mxCell id="HXO4jJ1y9l5ZbeT_rfQ7-45" value="" style="endArrow=none;html=1;rounded=0;exitX=1;exitY=0.5;exitDx=0;exitDy=0;entryX=1;entryY=0;entryDx=0;entryDy=90;strokeWidth=3;strokeColor=#FF0000;entryPerimeter=0;" parent="1" source="HXO4jJ1y9l5ZbeT_rfQ7-43" target="HXO4jJ1y9l5ZbeT_rfQ7-1" edge="1">
                    <mxGeometry width="50" height="50" relative="1" as="geometry">
                        <mxPoint x="-770" y="130" as="sourcePoint"/>
                        <mxPoint x="-770" y="195" as="targetPoint"/>
                        <Array as="points">
                            <mxPoint x="-410" y="405"/>
                        </Array>
                    </mxGeometry>
                </mxCell>
                <mxCell id="HXO4jJ1y9l5ZbeT_rfQ7-47" value="" style="ellipse;whiteSpace=wrap;html=1;fillColor=#FF0000;strokeColor=#FF0000;" parent="1" vertex="1">
                    <mxGeometry x="-867" y="400" width="10" height="10" as="geometry"/>
                </mxCell>
                <mxCell id="HXO4jJ1y9l5ZbeT_rfQ7-48" value="" style="endArrow=none;html=1;rounded=0;exitX=0.5;exitY=1;exitDx=0;exitDy=0;entryX=0.5;entryY=0;entryDx=0;entryDy=0;strokeWidth=3;strokeColor=#FF0000;" parent="1" source="HXO4jJ1y9l5ZbeT_rfQ7-27" target="HXO4jJ1y9l5ZbeT_rfQ7-47" edge="1">
                    <mxGeometry width="50" height="50" relative="1" as="geometry">
                        <mxPoint x="-770" y="130" as="sourcePoint"/>
                        <mxPoint x="-769" y="410" as="targetPoint"/>
                    </mxGeometry>
                </mxCell>
                <mxCell id="HXO4jJ1y9l5ZbeT_rfQ7-50" value="" style="endArrow=none;html=1;rounded=0;exitX=1;exitY=0.5;exitDx=0;exitDy=0;entryX=0;entryY=0.5;entryDx=0;entryDy=0;strokeWidth=3;strokeColor=#FF0000;" parent="1" source="HXO4jJ1y9l5ZbeT_rfQ7-47" target="HXO4jJ1y9l5ZbeT_rfQ7-43" edge="1">
                    <mxGeometry width="50" height="50" relative="1" as="geometry">
                        <mxPoint x="-850" y="130" as="sourcePoint"/>
                        <mxPoint x="-852" y="410" as="targetPoint"/>
                    </mxGeometry>
                </mxCell>
                <mxCell id="HXO4jJ1y9l5ZbeT_rfQ7-51" value="" style="ellipse;whiteSpace=wrap;html=1;fillColor=#000000;" parent="1" vertex="1">
                    <mxGeometry x="-825" y="208" width="10" height="10" as="geometry"/>
                </mxCell>
                <mxCell id="HXO4jJ1y9l5ZbeT_rfQ7-52" value="" style="endArrow=none;html=1;rounded=0;exitX=1;exitY=0.5;exitDx=0;exitDy=0;strokeWidth=3;entryX=0;entryY=0.5;entryDx=0;entryDy=0;" parent="1" source="HXO4jJ1y9l5ZbeT_rfQ7-51" target="HXO4jJ1y9l5ZbeT_rfQ7-37" edge="1">
                    <mxGeometry width="50" height="50" relative="1" as="geometry">
                        <mxPoint x="-729" y="188" as="sourcePoint"/>
                        <mxPoint x="-729" y="218" as="targetPoint"/>
                    </mxGeometry>
                </mxCell>
                <mxCell id="HXO4jJ1y9l5ZbeT_rfQ7-54" value="" style="endArrow=none;html=1;rounded=0;exitX=0.5;exitY=1;exitDx=0;exitDy=0;strokeWidth=3;entryX=0.5;entryY=0;entryDx=0;entryDy=0;" parent="1" source="HXO4jJ1y9l5ZbeT_rfQ7-26" target="HXO4jJ1y9l5ZbeT_rfQ7-51" edge="1">
                    <mxGeometry width="50" height="50" relative="1" as="geometry">
                        <mxPoint x="-790" y="165" as="sourcePoint"/>
                        <mxPoint x="-734" y="165" as="targetPoint"/>
                    </mxGeometry>
                </mxCell>
                <mxCell id="HXO4jJ1y9l5ZbeT_rfQ7-56" value="" style="endArrow=none;html=1;rounded=0;strokeWidth=3;exitX=0;exitY=0;exitDx=0;exitDy=10;exitPerimeter=0;strokeColor=#0000FF;entryX=1;entryY=0.5;entryDx=0;entryDy=0;" parent="1" source="HXO4jJ1y9l5ZbeT_rfQ7-1" target="HXO4jJ1y9l5ZbeT_rfQ7-57" edge="1">
                    <mxGeometry width="50" height="50" relative="1" as="geometry">
                        <mxPoint x="-245" y="250" as="sourcePoint"/>
                        <mxPoint x="-720" y="165" as="targetPoint"/>
                        <Array as="points">
                            <mxPoint x="-330" y="165"/>
                        </Array>
                    </mxGeometry>
                </mxCell>
                <mxCell id="HXO4jJ1y9l5ZbeT_rfQ7-57" value="" style="ellipse;whiteSpace=wrap;html=1;fillColor=#0000FF;strokeColor=#0000FF;" parent="1" vertex="1">
                    <mxGeometry x="-745" y="160" width="10" height="10" as="geometry"/>
                </mxCell>
                <mxCell id="HXO4jJ1y9l5ZbeT_rfQ7-58" value="" style="endArrow=none;html=1;rounded=0;strokeWidth=3;entryX=0.5;entryY=0;entryDx=0;entryDy=0;strokeColor=#0000FF;exitX=0.5;exitY=1;exitDx=0;exitDy=0;" parent="1" source="HXO4jJ1y9l5ZbeT_rfQ7-23" target="HXO4jJ1y9l5ZbeT_rfQ7-57" edge="1">
                    <mxGeometry width="50" height="50" relative="1" as="geometry">
                        <mxPoint x="-710" y="140" as="sourcePoint"/>
                        <mxPoint x="-729" y="160" as="targetPoint"/>
                    </mxGeometry>
                </mxCell>
                <mxCell id="HXO4jJ1y9l5ZbeT_rfQ7-60" value="" style="endArrow=none;html=1;rounded=0;strokeWidth=3;exitX=0;exitY=0;exitDx=0;exitDy=30;exitPerimeter=0;strokeColor=#FFB366;entryX=1;entryY=0.5;entryDx=0;entryDy=0;" parent="1" source="HXO4jJ1y9l5ZbeT_rfQ7-1" target="HXO4jJ1y9l5ZbeT_rfQ7-63" edge="1">
                    <mxGeometry width="50" height="50" relative="1" as="geometry">
                        <mxPoint x="-205" y="250" as="sourcePoint"/>
                        <mxPoint x="-660" y="190" as="targetPoint"/>
                        <Array as="points">
                            <mxPoint x="-350" y="187"/>
                        </Array>
                    </mxGeometry>
                </mxCell>
                <mxCell id="HXO4jJ1y9l5ZbeT_rfQ7-63" value="" style="ellipse;whiteSpace=wrap;html=1;fillColor=#FFB366;strokeColor=#FFB366;" parent="1" vertex="1">
                    <mxGeometry x="-666" y="182" width="10" height="10" as="geometry"/>
                </mxCell>
                <mxCell id="HXO4jJ1y9l5ZbeT_rfQ7-64" value="" style="endArrow=none;html=1;rounded=0;exitX=0.5;exitY=1;exitDx=0;exitDy=0;strokeWidth=3;entryX=0.5;entryY=0;entryDx=0;entryDy=0;strokeColor=#FFB366;fillColor=#fad7ac;" parent="1" source="HXO4jJ1y9l5ZbeT_rfQ7-25" target="HXO4jJ1y9l5ZbeT_rfQ7-63" edge="1">
                    <mxGeometry width="50" height="50" relative="1" as="geometry">
                        <mxPoint x="-690" y="130" as="sourcePoint"/>
                        <mxPoint x="-719" y="170" as="targetPoint"/>
                    </mxGeometry>
                </mxCell>
            </root>
        </mxGraphModel>
    </diagram>
</mxfile>